<svg version="1.0" xmlns="http://www.w3.org/2000/svg"
 width="225.000000pt" height="225.000000pt" viewBox="0 0 225.000000 225.000000"
 preserveAspectRatio="xMidYMid meet">
<g transform="translate(0.000000,225.000000) scale(0.100000,-0.100000)"
fill="#000000" stroke="none">
<path d="M641 2225 c-35 -30 -63 -99 -88 -217 -25 -117 -24 -408 0 -533 30
-148 78 -235 130 -235 10 0 43 27 74 60 43 47 76 70 147 105 82 40 206 82 293
98 l32 6 3 -722 c3 -779 1 -752 55 -776 32 -15 136 -14 168 1 56 26 55 5 55
798 0 671 1 730 16 730 10 0 43 -10 75 -21 32 -12 65 -19 72 -16 60 23 65 416
6 481 -4 4 -38 -3 -76 -18 -38 -14 -73 -26 -79 -26 -6 0 -14 23 -16 52 -8 78
-36 98 -136 98 -92 0 -116 -13 -134 -71 -12 -41 -12 -41 -52 -35 -74 12 -209
57 -291 98 -57 29 -98 59 -142 104 -33 35 -66 64 -71 64 -6 0 -24 -11 -41 -25z
m81 -80 l36 -40 -14 -65 c-34 -159 -34 -447 0 -594 l16 -68 -37 -43 c-21 -24
-42 -42 -48 -41 -5 1 -19 22 -31 47 -88 177 -81 696 12 827 19 28 21 27 66
-23z m294 -164 c108 -35 261 -67 364 -76 41 -3 90 -8 108 -11 l32 -5 0 -149 0
-150 -29 0 c-68 0 -284 -34 -391 -61 -64 -17 -155 -49 -205 -73 -57 -28 -92
-40 -97 -34 -9 17 -27 147 -34 256 -6 96 8 278 27 358 l11 41 61 -33 c34 -19
103 -47 153 -63z m422 53 c16 -11 22 -25 22 -51 l0 -36 -82 7 c-44 4 -85 9
-90 12 -16 10 -8 53 14 68 12 9 43 16 68 16 25 0 56 -7 68 -16z m223 -131 c13
-35 8 -328 -6 -342 -7 -7 -24 -4 -53 9 l-42 19 0 154 0 155 38 15 c50 21 51
21 63 -10z m-201 -1096 c0 -557 -3 -736 -12 -745 -7 -7 -40 -12 -80 -12 -56 0
-69 3 -78 19 -7 13 -10 261 -10 735 l0 715 58 6 c31 4 62 8 67 10 6 2 20 4 33
4 l22 1 0 -733z"/>
</g>
</svg>
